<?xml version="1.0" encoding="utf-8"?>
<!-- Generator: Adobe Illustrator 21.1.0, SVG Export Plug-In . SVG Version: 6.00 Build 0)  -->
<svg version="1.1" id="Layer_1" xmlns="http://www.w3.org/2000/svg" xmlns:xlink="http://www.w3.org/1999/xlink" x="0px" y="0px"
	 viewBox="0 0 218.6 258.8" style="enable-background:new 0 0 218.6 258.8;" xml:space="preserve">
<style type="text/css">
	.st0{fill:none;stroke:#000000;stroke-width:0.5;stroke-miterlimit:10;}
	.st1{fill:none;stroke:#000000;stroke-width:0.75;stroke-miterlimit:10;}
	.st2{fill:#FFFFFF;}
	.st3{fill:none;stroke:#000000;stroke-width:0.25;stroke-miterlimit:10;}
	.st4{fill:none;stroke:#000000;stroke-miterlimit:10;}
	.st5{fill:none;}
</style>
<g>
	<defs>
		<rect id="SVGID_1_" x="-314.7" y="-244.8" width="850.4" height="850.4"/>
	</defs>
	<clipPath id="SVGID_2_">
		<use xlink:href="#SVGID_1_"  style="overflow:visible;"/>
	</clipPath>
</g>
<polygon class="st0" points="109.5,60.1 55.6,153.6 163.5,153.6 "/>
<polygon class="st0" points="109.4,185.2 55.5,91.8 163.4,91.8 "/>
<rect x="93.4" y="13.2" transform="matrix(0.866 -0.5 0.5 0.866 -46.4899 71.0425)" class="st0" width="31.8" height="218.1"/>
<rect x="0.1" y="106.7" transform="matrix(0.5 -0.866 0.866 0.5 -51.5218 155.9795)" class="st0" width="218.5" height="31.8"/>
<path d="M109.8,74.4c2.4-0.9,14.3-14.3,19.6-27.4c4.3-10.5,4.6-23.6,2.4-36.6l0.6-0.6c2.6,13.3,2.1,26.7-2.3,37.4
	c-5.3,12.8-16.8,26.6-20,27.6c-0.4,0.1-0.7,0.1-1-0.1c-0.2-0.1-0.3-0.2-0.4-0.4"/>
<path d="M132.4,9.9l0.2,0.8c-4.4,4.3-9.3,9.3-13.1,14c-3.6,4.5-6.3,9.3-9.4,14.2h-0.7c3.1-4.9,6.1-10.2,9.7-14.7
	C122.8,19.4,127.9,14.2,132.4,9.9"/>
<path d="M109.4,74.4C107,73.5,95.2,60.1,89.8,47c-4.3-10.5-4.6-23.6-2.4-36.6l-0.6-0.6c-2.6,13.3-2.1,26.7,2.3,37.4
	c5.3,12.8,16.8,26.6,20,27.6c0.4,0.1,0.7,0.1,1-0.1c0.2-0.1,0.3-0.2,0.4-0.4"/>
<path d="M86.8,9.9l-0.2,0.8c4.4,4.3,9.3,9.3,13.1,14c3.6,4.5,6.3,9.3,9.4,14.2h0.7c-3.1-4.9-6.1-10.2-9.7-14.7
	C96.4,19.4,91.3,14.2,86.8,9.9"/>
<path d="M151.3,100.2c2,1.6,19.5,5.4,33.5,3.6c11.2-1.4,22.8-7.7,33-16l0.8,0.2c-10.3,8.8-22.2,15-33.7,16.4
	c-13.7,1.7-31.4-1.5-33.9-3.8c-0.3-0.3-0.5-0.6-0.5-0.9c0-0.2,0.1-0.3,0.2-0.5"/>
<path d="M218.6,88.1l-0.7,0.6c-5.9-1.7-12.6-3.5-18.7-4.5c-5.7-0.9-11.3-0.9-17-1.2l-0.4-0.6c5.8,0.3,11.9,0.3,17.6,1.2
	C205.6,84.5,212.6,86.4,218.6,88.1"/>
<path d="M151.1,100c-0.4-2.6,5.4-19.5,14.1-30.6c7-8.9,18.3-15.6,30.7-20.1l0.2-0.8c-12.8,4.3-24.3,11.3-31.4,20.4
	c-8.6,10.9-14.9,27.7-14.2,31c0.1,0.4,0.3,0.7,0.6,0.9c0.2,0.1,0.3,0.1,0.5,0.1"/>
<path d="M196.2,48.5l-0.8,0.3c-1.5,5.9-3.5,12.7-5.7,18.3c-2.1,5.3-5,10.1-7.7,15.2l0.4,0.6c2.7-5.1,5.9-10.3,8-15.7
	C192.5,61.5,194.6,54.5,196.2,48.5"/>
<path d="M69.1,99.8c-2,1.6-19.5,5.4-33.5,3.6c-11.2-1.4-22.8-7.7-33-16l-0.8,0.2c10.3,8.8,22.2,15,33.7,16.4
	c13.7,1.7,31.4-1.5,33.9-3.8c0.3-0.3,0.5-0.6,0.5-0.9c0-0.2-0.1-0.3-0.2-0.5"/>
<path d="M1.8,87.7l0.7,0.6c5.9-1.7,12.6-3.5,18.7-4.5c5.7-0.9,11.3-0.9,17-1.2l0.4-0.6c-5.8,0.3-11.9,0.3-17.6,1.2
	C14.7,84.1,7.7,85.9,1.8,87.7"/>
<path d="M69.2,99.5C69.6,96.9,63.8,80,55.1,69c-7-8.9-18.3-15.6-30.7-20.1l-0.2-0.8C37,52.4,48.4,59.4,55.6,68.5
	c8.6,10.9,14.9,27.7,14.2,31c-0.1,0.4-0.3,0.7-0.6,0.9c-0.2,0.1-0.3,0.1-0.5,0.1"/>
<path d="M24.2,48.1l0.8,0.3c1.5,5.9,3.5,12.7,5.7,18.3c2.1,5.3,5,10.1,7.7,15.2l-0.4,0.6c-2.7-5.1-5.9-10.3-8-15.7
	C27.8,61,25.7,54,24.2,48.1"/>
<path d="M151.2,145.2c2-1.6,19.5-5.4,33.5-3.6c11.2,1.4,22.8,7.7,33,16l0.8-0.2c-10.3-8.8-22.2-15-33.7-16.4
	c-13.7-1.7-31.4,1.5-33.9,3.8c-0.3,0.3-0.5,0.6-0.5,0.9c0,0.2,0.1,0.3,0.2,0.5"/>
<path d="M218.5,157.3l-0.7-0.6c-5.9,1.7-12.6,3.5-18.7,4.5c-5.7,0.9-11.3,0.9-17,1.2l-0.4,0.6c5.8-0.3,11.9-0.3,17.6-1.2
	C205.6,160.9,212.6,159,218.5,157.3"/>
<path d="M151.1,145.4c-0.4,2.6,5.4,19.5,14.1,30.6c7,8.9,18.3,15.6,30.7,20.1l0.2,0.8c-12.8-4.3-24.3-11.3-31.4-20.4
	c-8.6-10.9-14.9-27.7-14.2-31c0.1-0.4,0.3-0.7,0.6-0.9c0.2-0.1,0.3-0.1,0.5-0.1"/>
<path d="M196.1,196.9l-0.8-0.3c-1.5-5.9-3.5-12.7-5.7-18.3c-2.1-5.3-5-10.1-7.7-15.2l0.4-0.6c2.7,5.1,5.9,10.3,8,15.7
	C192.5,183.9,194.6,190.9,196.1,196.9"/>
<path d="M69,145.6c-2-1.6-19.5-5.4-33.5-3.6c-11.2,1.4-22.8,7.7-33,16l-0.8-0.2c10.3-8.8,22.2-15,33.7-16.4
	c13.7-1.7,31.4,1.5,33.9,3.8c0.3,0.3,0.5,0.6,0.5,0.9c0,0.2-0.1,0.3-0.2,0.5"/>
<path d="M1.7,157.7l0.7-0.6c5.9,1.7,12.6,3.5,18.7,4.5c5.7,0.9,11.3,0.9,17,1.2l0.4,0.6c-5.8-0.3-11.9-0.3-17.6-1.2
	C14.7,161.3,7.7,159.4,1.7,157.7"/>
<path d="M69.2,145.9c0.4,2.6-5.4,19.5-14.1,30.6c-7,8.9-18.3,15.6-30.7,20.1l-0.2,0.8c12.8-4.3,24.3-11.3,31.4-20.4
	c8.6-10.9,14.9-27.7,14.2-31c-0.1-0.4-0.3-0.7-0.6-0.9c-0.2-0.1-0.3-0.1-0.5-0.1"/>
<path d="M24.1,197.3L25,197c1.5-5.9,3.5-12.7,5.7-18.3c2.1-5.3,5-10.1,7.7-15.2l-0.4-0.6c-2.7,5.1-5.9,10.3-8,15.7
	C27.7,184.3,25.7,191.4,24.1,197.3"/>
<line class="st1" x1="109.6" y1="38.9" x2="109.6" y2="90.7"/>
<line class="st0" x1="182.8" y1="82.2" x2="38.3" y2="163.2"/>
<line class="st0" x1="182.8" y1="163.2" x2="38.3" y2="82.2"/>
<circle class="st0" cx="108.8" cy="122.4" r="108.8"/>
<circle class="st0" cx="109.4" cy="13.1" r="13.1"/>
<circle class="st0" cx="145.6" cy="122.2" r="13.1"/>
<circle class="st0" cx="73.2" cy="122.2" r="13.1"/>
<circle class="st0" cx="127.4" cy="90.5" r="13.1"/>
<circle class="st0" cx="91.2" cy="90.5" r="13.1"/>
<circle class="st0" cx="204.6" cy="69.5" r="13.2"/>
<circle class="st0" cx="204.6" cy="175" r="13.2"/>
<circle class="st0" cx="13.8" cy="69.7" r="13.2"/>
<circle class="st0" cx="13.8" cy="175.2" r="13.2"/>
<polygon class="st0" points="54.7,28 54.7,216.6 218,122.3 "/>
<polygon class="st0" points="163.7,28 0.4,123.1 164.4,217 "/>
<polyline class="st0" points="144.1,156.7 164.1,122 136.8,74.7 82.1,74.7 54.8,122 74.3,155.7 "/>
<polyline class="st0" points="136.9,138.1 136.9,106.5 109.5,90.7 82.2,106.5 82.2,138.1 "/>
<path class="st2" d="M111.8,93.3c6.1,4,10.7,8.1,14,11.3c4,3.9,6.8,7.2,8.4,9.1c2.5,3,4.9,5.9,7.6,10.2c3.7,5.8,5.7,10.8,6.4,12.7
	c1.7,4.4,2.5,7.8,3.4,11.7c1.2,5,1.8,9.1,2.1,11.6c0.3,2.6,0.5,4.9,0.6,6.6"/>
<path class="st3" d="M111.8,93.3c6.1,4,10.7,8.1,14,11.3c4,3.9,6.8,7.2,8.4,9.1c2.5,3,4.9,5.9,7.6,10.2c3.7,5.8,5.7,10.8,6.4,12.7
	c1.7,4.4,2.5,7.8,3.4,11.7c1.2,5,1.8,9.1,2.1,11.6c0.3,2.6,0.5,4.9,0.6,6.6"/>
<path d="M154.1,166.7c-0.1-2.2-0.4-4.4-0.6-6.6c-0.5-3.8-1.2-7.7-2.1-11.6c-0.9-3.9-1.7-7.2-3.4-11.7c-1.6-4.2-3.8-8.6-6.4-12.7
	c-2.7-4.3-5.1-7.1-7.6-10.2c-1.5-1.8-4.3-5.2-8.4-9.1c-4.3-4.1-9-7.9-13.9-11.2l-0.5-1.2c5,3.3,10.6,7.7,14.9,11.9
	c4.1,4,6.9,7.4,8.4,9.2c2.5,3.1,4.9,6,7.6,10.3c2.6,4.1,4.8,8.5,6.5,12.8c1.7,4.5,2.5,7.8,3.5,11.7c0.9,3.9,1.6,7.8,2.1,11.6
	c0.3,2.2,0.5,5.2,0.6,7.5L154.1,166.7z"/>
<path class="st3" d="M154.1,166.7c-0.1-2.2-0.4-4.4-0.6-6.6c-0.5-3.8-1.2-7.7-2.1-11.6c-0.9-3.9-1.7-7.2-3.4-11.7
	c-1.6-4.2-3.8-8.6-6.4-12.7c-2.7-4.3-5.1-7.1-7.6-10.2c-1.5-1.8-4.3-5.2-8.4-9.1c-4.3-4.1-9-7.9-13.9-11.2l-0.5-1.2
	c5,3.3,10.6,7.7,14.9,11.9c4.1,4,6.9,7.4,8.4,9.2c2.5,3.1,4.9,6,7.6,10.3c2.6,4.1,4.8,8.5,6.5,12.8c1.7,4.5,2.5,7.8,3.5,11.7
	c0.9,3.9,1.6,7.8,2.1,11.6c0.3,2.2,0.5,5.2,0.6,7.5L154.1,166.7z"/>
<path class="st2" d="M111.6,93.4c0.5,7.3,1.8,13.3,2.9,17.7c1.4,5.4,2.9,9.5,3.8,11.8c1.4,3.7,2.7,7.2,5.1,11.7
	c3.3,6.1,6.6,10.3,7.9,11.9c3,3.7,5.6,6.1,8.5,8.8c3.8,3.5,7,6.1,9,7.6c2.1,1.6,4,2.9,5.4,3.8"/>
<path class="st3" d="M111.6,93.4c0.5,7.3,1.8,13.3,2.9,17.7c1.4,5.4,2.9,9.5,3.8,11.8c1.4,3.7,2.7,7.2,5.1,11.7
	c3.3,6.1,6.6,10.3,7.9,11.9c3,3.7,5.6,6.1,8.5,8.8c3.8,3.5,7,6.1,9,7.6c2.1,1.6,4,2.9,5.4,3.8"/>
<path d="M154.9,167.5c-1.8-1.2-4.5-3-6.2-4.4c-3.1-2.3-6.1-4.9-9.1-7.6c-2.9-2.7-5.5-5.1-8.5-8.8c-2.9-3.5-5.6-7.7-7.9-11.9
	c-2.4-4.5-3.7-8-5.2-11.7c-0.8-2.2-2.4-6.4-3.8-11.9c-1.5-5.8-2.5-12.7-3-18.7l0.8,0.9c0.4,6,1.4,11.9,2.9,17.7
	c1.4,5.5,3,9.6,3.8,11.8c1.4,3.7,2.7,7.2,5.1,11.6c2.3,4.2,5,8.3,7.9,11.8c3,3.7,5.5,6,8.4,8.7c2.9,2.7,5.9,5.2,9,7.6
	c1.8,1.3,3.6,2.6,5.4,3.8L154.9,167.5z"/>
<path class="st3" d="M154.9,167.5c-1.8-1.2-4.5-3-6.2-4.4c-3.1-2.3-6.1-4.9-9.1-7.6c-2.9-2.7-5.5-5.1-8.5-8.8
	c-2.9-3.5-5.6-7.7-7.9-11.9c-2.4-4.5-3.7-8-5.2-11.7c-0.8-2.2-2.4-6.4-3.8-11.9c-1.5-5.8-2.5-12.7-3-18.7l0.8,0.9
	c0.4,6,1.4,11.9,2.9,17.7c1.4,5.5,3,9.6,3.8,11.8c1.4,3.7,2.7,7.2,5.1,11.6c2.3,4.2,5,8.3,7.9,11.8c3,3.7,5.5,6,8.4,8.7
	c2.9,2.7,5.9,5.2,9,7.6c1.8,1.3,3.6,2.6,5.4,3.8L154.9,167.5z"/>
<path class="st2" d="M113.4,96.2c5.4,3.8,9.6,7.6,12.6,10.5c3.6,3.6,6.1,6.7,7.6,8.5c2.3,2.8,4.5,5.5,6.9,9.5
	c3.4,5.4,5.2,9.9,6,11.7c1.6,4.1,2.4,7.2,3.3,10.7c1.2,4.6,1.8,8.3,2.1,10.6c0.4,2.4,0.6,4.4,0.7,6"/>
<path class="st0" d="M113.4,96.2c5.4,3.8,9.6,7.6,12.6,10.5c3.6,3.6,6.1,6.7,7.6,8.5c2.3,2.8,4.5,5.5,6.9,9.5
	c3.4,5.4,5.2,9.9,6,11.7c1.6,4.1,2.4,7.2,3.3,10.7c1.2,4.6,1.8,8.3,2.1,10.6c0.4,2.4,0.6,4.4,0.7,6"/>
<path d="M152.4,163.7c-0.2-2-0.4-4-0.7-6c-0.5-3.5-1.2-7-2.1-10.6c-0.9-3.5-1.7-6.6-3.3-10.7c-1.5-3.9-3.6-7.9-5.9-11.7
	c-2.5-3.9-4.6-6.6-6.9-9.4c-1.4-1.7-3.9-4.8-7.6-8.5c-3.9-3.9-8.1-7.4-12.6-10.5l-0.2-0.6c4.5,3.1,9.2,7,13,10.9
	c3.7,3.7,6.2,6.8,7.6,8.5c2.3,2.8,4.5,5.5,7,9.5c2.4,3.8,4.4,7.8,6,11.7c1.6,4.1,2.4,7.2,3.3,10.7c0.9,3.5,1.6,7.1,2.1,10.6
	c0.3,2,0.6,4.5,0.8,6.5L152.4,163.7z"/>
<path class="st0" d="M152.4,163.7c-0.2-2-0.4-4-0.7-6c-0.5-3.5-1.2-7-2.1-10.6c-0.9-3.5-1.7-6.6-3.3-10.7c-1.5-3.9-3.6-7.9-5.9-11.7
	c-2.5-3.9-4.6-6.6-6.9-9.4c-1.4-1.7-3.9-4.8-7.6-8.5c-3.9-3.9-8.1-7.4-12.6-10.5l-0.2-0.6c4.5,3.1,9.2,7,13,10.9
	c3.7,3.7,6.2,6.8,7.6,8.5c2.3,2.8,4.5,5.5,7,9.5c2.4,3.8,4.4,7.8,6,11.7c1.6,4.1,2.4,7.2,3.3,10.7c0.9,3.5,1.6,7.1,2.1,10.6
	c0.3,2,0.6,4.5,0.8,6.5L152.4,163.7z"/>
<path class="st2" d="M113.3,96.3c0.6,6.6,1.8,12.1,2.9,16.2c1.3,4.9,2.8,8.7,3.6,10.8c1.3,3.4,2.6,6.6,4.8,10.7c3,5.6,6,9.5,7.2,11
	c2.7,3.4,5,5.6,7.7,8.1c3.4,3.3,6.3,5.7,8.1,7.1c1.9,1.5,3.6,2.7,4.9,3.6"/>
<path class="st0" d="M113.3,96.3c0.6,6.6,1.8,12.1,2.9,16.2c1.3,4.9,2.8,8.7,3.6,10.8c1.3,3.4,2.6,6.6,4.8,10.7c3,5.6,6,9.5,7.2,11
	c2.7,3.4,5,5.6,7.7,8.1c3.4,3.3,6.3,5.7,8.1,7.1c1.9,1.5,3.6,2.7,4.9,3.6"/>
<path d="M152.8,164.2c-1.6-1.1-3.7-2.6-5.3-3.9c-2.8-2.2-5.5-4.6-8.1-7.1c-2.6-2.5-4.9-4.7-7.7-8.2c-2.6-3.3-5.1-7.1-7.2-11
	c-2.2-4.1-3.5-7.3-4.8-10.7c-0.8-2-2.3-5.8-3.6-10.8c-1.4-5.3-2.5-11.3-3-16.7l0.4,0.5c0.5,5.4,1.5,10.8,2.9,16.1
	c1.4,5,2.8,8.8,3.6,10.8c1.3,3.4,2.6,6.6,4.8,10.7c2.1,3.9,4.6,7.7,7.2,10.9c2.7,3.4,5,5.6,7.6,8.1c2.6,2.5,5.4,4.9,8.1,7.1
	c1.6,1.2,3.2,2.5,4.9,3.6L152.8,164.2z"/>
<path class="st0" d="M152.8,164.2c-1.6-1.1-3.7-2.6-5.3-3.9c-2.8-2.2-5.5-4.6-8.1-7.1c-2.6-2.5-4.9-4.7-7.7-8.2
	c-2.6-3.3-5.1-7.1-7.2-11c-2.2-4.1-3.5-7.3-4.8-10.7c-0.8-2-2.3-5.8-3.6-10.8c-1.4-5.3-2.5-11.3-3-16.7l0.4,0.5
	c0.5,5.4,1.5,10.8,2.9,16.1c1.4,5,2.8,8.8,3.6,10.8c1.3,3.4,2.6,6.6,4.8,10.7c2.1,3.9,4.6,7.7,7.2,10.9c2.7,3.4,5,5.6,7.6,8.1
	c2.6,2.5,5.4,4.9,8.1,7.1c1.6,1.2,3.2,2.5,4.9,3.6L152.8,164.2z"/>
<path class="st2" d="M155.6,168.5c6.1,4,10.7,8.1,14,11.3c4,3.9,6.8,7.2,8.4,9.1c2.5,3,4.9,5.9,7.6,10.2c3.7,5.8,5.7,10.8,6.4,12.7
	c1.7,4.4,2.5,7.8,3.4,11.7c1.2,5,1.8,9.1,2.1,11.6c0.3,2.6,0.5,4.9,0.6,6.6"/>
<path class="st3" d="M155.6,168.5c6.1,4,10.7,8.1,14,11.3c4,3.9,6.8,7.2,8.4,9.1c2.5,3,4.9,5.9,7.6,10.2c3.7,5.8,5.7,10.8,6.4,12.7
	c1.7,4.4,2.5,7.8,3.4,11.7c1.2,5,1.8,9.1,2.1,11.6c0.3,2.6,0.5,4.9,0.6,6.6"/>
<path d="M198,241.9c-0.1-2.2-0.4-4.4-0.6-6.6c-0.5-3.8-1.2-7.7-2.1-11.6c-0.9-3.9-1.7-7.2-3.4-11.7c-1.6-4.2-3.8-8.6-6.4-12.7
	c-2.7-4.3-5.1-7.1-7.6-10.2c-1.5-1.8-4.3-5.2-8.4-9.1c-4.3-4.1-9-7.9-13.9-11.2l-0.5-1.2c5,3.3,10.6,7.7,14.9,11.9
	c4.1,4,6.9,7.4,8.4,9.2c2.5,3.1,4.9,6,7.6,10.3c2.6,4.1,4.8,8.5,6.5,12.8c1.7,4.5,2.5,7.8,3.5,11.7c0.9,3.9,1.6,7.8,2.1,11.6
	c0.3,2.2,0.5,5.2,0.6,7.5L198,241.9z"/>
<path class="st3" d="M198,241.9c-0.1-2.2-0.4-4.4-0.6-6.6c-0.5-3.8-1.2-7.7-2.1-11.6c-0.9-3.9-1.7-7.2-3.4-11.7
	c-1.6-4.2-3.8-8.6-6.4-12.7c-2.7-4.3-5.1-7.1-7.6-10.2c-1.5-1.8-4.3-5.2-8.4-9.1c-4.3-4.1-9-7.9-13.9-11.2l-0.5-1.2
	c5,3.3,10.6,7.7,14.9,11.9c4.1,4,6.9,7.4,8.4,9.2c2.5,3.1,4.9,6,7.6,10.3c2.6,4.1,4.8,8.5,6.5,12.8c1.7,4.5,2.5,7.8,3.5,11.7
	c0.9,3.9,1.6,7.8,2.1,11.6c0.3,2.2,0.5,5.2,0.6,7.5L198,241.9z"/>
<path class="st2" d="M155.5,168.6c0.5,7.3,1.8,13.3,2.9,17.7c1.4,5.4,2.9,9.5,3.8,11.8c1.4,3.7,2.7,7.2,5.1,11.7
	c3.3,6.1,6.6,10.3,7.9,11.9c3,3.7,5.6,6.1,8.5,8.8c3.8,3.5,7,6.1,9,7.6c2.1,1.6,4,2.9,5.4,3.8"/>
<path class="st3" d="M155.5,168.6c0.5,7.3,1.8,13.3,2.9,17.7c1.4,5.4,2.9,9.5,3.8,11.8c1.4,3.7,2.7,7.2,5.1,11.7
	c3.3,6.1,6.6,10.3,7.9,11.9c3,3.7,5.6,6.1,8.5,8.8c3.8,3.5,7,6.1,9,7.6c2.1,1.6,4,2.9,5.4,3.8"/>
<path d="M198.7,242.7c-1.8-1.2-4.5-3-6.2-4.4c-3.1-2.3-6.1-4.9-9.1-7.6c-2.9-2.7-5.5-5.1-8.5-8.8c-2.9-3.5-5.6-7.7-7.9-11.9
	c-2.4-4.5-3.7-8-5.2-11.7c-0.8-2.2-2.4-6.4-3.8-11.9c-1.5-5.8-2.5-12.7-3-18.7l0.8,0.9c0.4,6,1.4,11.9,2.9,17.7
	c1.4,5.5,3,9.6,3.8,11.8c1.4,3.7,2.7,7.2,5.1,11.6c2.3,4.2,5,8.3,7.9,11.8c3,3.7,5.5,6,8.4,8.7c2.9,2.7,5.9,5.2,9,7.6
	c1.8,1.3,3.6,2.6,5.4,3.8L198.7,242.7z"/>
<path class="st3" d="M198.7,242.7c-1.8-1.2-4.5-3-6.2-4.4c-3.1-2.3-6.1-4.9-9.1-7.6c-2.9-2.7-5.5-5.1-8.5-8.8
	c-2.9-3.5-5.6-7.7-7.9-11.9c-2.4-4.5-3.7-8-5.2-11.7c-0.8-2.2-2.4-6.4-3.8-11.9c-1.5-5.8-2.5-12.7-3-18.7l0.8,0.9
	c0.4,6,1.4,11.9,2.9,17.7c1.4,5.5,3,9.6,3.8,11.8c1.4,3.7,2.7,7.2,5.1,11.6c2.3,4.2,5,8.3,7.9,11.8c3,3.7,5.5,6,8.4,8.7
	c2.9,2.7,5.9,5.2,9,7.6c1.8,1.3,3.6,2.6,5.4,3.8L198.7,242.7z"/>
<path class="st2" d="M157.2,171.5c5.4,3.8,9.6,7.6,12.6,10.5c3.6,3.6,6.1,6.7,7.6,8.5c2.3,2.8,4.5,5.5,6.9,9.5
	c3.4,5.4,5.2,9.9,6,11.7c1.6,4.1,2.4,7.2,3.3,10.7c1.2,4.6,1.8,8.3,2.1,10.6c0.4,2.4,0.6,4.4,0.7,6"/>
<path class="st0" d="M157.2,171.5c5.4,3.8,9.6,7.6,12.6,10.5c3.6,3.6,6.1,6.7,7.6,8.5c2.3,2.8,4.5,5.5,6.9,9.5
	c3.4,5.4,5.2,9.9,6,11.7c1.6,4.1,2.4,7.2,3.3,10.7c1.2,4.6,1.8,8.3,2.1,10.6c0.4,2.4,0.6,4.4,0.7,6"/>
<path d="M196.2,238.9c-0.2-2-0.4-4-0.7-6c-0.5-3.5-1.2-7-2.1-10.6c-0.9-3.5-1.7-6.6-3.3-10.7c-1.5-3.9-3.6-7.9-5.9-11.7
	c-2.5-3.9-4.6-6.6-6.9-9.4c-1.4-1.7-3.9-4.8-7.6-8.5c-3.9-3.9-8.1-7.4-12.6-10.5l-0.2-0.6c4.5,3.1,9.2,7,13,10.9
	c3.7,3.7,6.2,6.8,7.6,8.5c2.3,2.8,4.5,5.5,7,9.5c2.4,3.8,4.4,7.8,6,11.7c1.6,4.1,2.4,7.2,3.3,10.7c0.9,3.5,1.6,7.1,2.1,10.6
	c0.3,2,0.6,4.5,0.7,6.5L196.2,238.9z"/>
<path class="st0" d="M196.2,238.9c-0.2-2-0.4-4-0.7-6c-0.5-3.5-1.2-7-2.1-10.6c-0.9-3.5-1.7-6.6-3.3-10.7c-1.5-3.9-3.6-7.9-5.9-11.7
	c-2.5-3.9-4.6-6.6-6.9-9.4c-1.4-1.7-3.9-4.8-7.6-8.5c-3.9-3.9-8.1-7.4-12.6-10.5l-0.2-0.6c4.5,3.1,9.2,7,13,10.9
	c3.7,3.7,6.2,6.8,7.6,8.5c2.3,2.8,4.5,5.5,7,9.5c2.4,3.8,4.4,7.8,6,11.7c1.6,4.1,2.4,7.2,3.3,10.7c0.9,3.5,1.6,7.1,2.1,10.6
	c0.3,2,0.6,4.5,0.7,6.5L196.2,238.9z"/>
<path class="st2" d="M157.1,171.5c0.6,6.6,1.8,12.1,2.9,16.2c1.3,4.9,2.8,8.7,3.6,10.8c1.3,3.4,2.6,6.6,4.8,10.7c3,5.6,6,9.5,7.2,11
	c2.7,3.4,5,5.6,7.7,8.1c3.4,3.3,6.3,5.7,8.1,7.1c1.9,1.5,3.6,2.7,4.9,3.6"/>
<path class="st0" d="M157.1,171.5c0.6,6.6,1.8,12.1,2.9,16.2c1.3,4.9,2.8,8.7,3.6,10.8c1.3,3.4,2.6,6.6,4.8,10.7c3,5.6,6,9.5,7.2,11
	c2.7,3.4,5,5.6,7.7,8.1c3.4,3.3,6.3,5.7,8.1,7.1c1.9,1.5,3.6,2.7,4.9,3.6"/>
<path d="M196.6,239.4c-1.6-1.1-3.7-2.6-5.3-3.9c-2.8-2.2-5.5-4.6-8.2-7.1c-2.6-2.5-4.9-4.7-7.7-8.2c-2.6-3.3-5.1-7.1-7.2-11
	c-2.2-4.1-3.5-7.3-4.8-10.7c-0.8-2-2.3-5.8-3.6-10.8c-1.4-5.3-2.5-11.3-3-16.7l0.4,0.5c0.5,5.4,1.5,10.8,2.9,16.1
	c1.4,5,2.8,8.8,3.6,10.8c1.3,3.4,2.6,6.6,4.8,10.7c2.1,3.9,4.6,7.7,7.2,10.9c2.7,3.4,5,5.6,7.6,8.1c2.6,2.5,5.4,4.9,8.1,7.1
	c1.6,1.2,3.2,2.5,4.9,3.6L196.6,239.4z"/>
<path class="st0" d="M196.6,239.4c-1.6-1.1-3.7-2.6-5.3-3.9c-2.8-2.2-5.5-4.6-8.2-7.1c-2.6-2.5-4.9-4.7-7.7-8.2
	c-2.6-3.3-5.1-7.1-7.2-11c-2.2-4.1-3.5-7.3-4.8-10.7c-0.8-2-2.3-5.8-3.6-10.8c-1.4-5.3-2.5-11.3-3-16.7l0.4,0.5
	c0.5,5.4,1.5,10.8,2.9,16.1c1.4,5,2.8,8.8,3.6,10.8c1.3,3.4,2.6,6.6,4.8,10.7c2.1,3.9,4.6,7.7,7.2,10.9c2.7,3.4,5,5.6,7.6,8.1
	c2.6,2.5,5.4,4.9,8.1,7.1c1.6,1.2,3.2,2.5,4.9,3.6L196.6,239.4z"/>
<path class="st2" d="M107.1,93.4c-6.1,4-10.7,8.1-14,11.3c-4,3.9-6.8,7.2-8.4,9.1c-2.5,3-4.9,5.9-7.6,10.2
	c-3.7,5.8-5.7,10.8-6.4,12.7c-1.7,4.4-2.5,7.8-3.4,11.7c-1.2,5-1.8,9.1-2.1,11.6c-0.3,2.6-0.5,4.9-0.6,6.6"/>
<path class="st3" d="M107.1,93.4c-6.1,4-10.7,8.1-14,11.3c-4,3.9-6.8,7.2-8.4,9.1c-2.5,3-4.9,5.9-7.6,10.2
	c-3.7,5.8-5.7,10.8-6.4,12.7c-1.7,4.4-2.5,7.8-3.4,11.7c-1.2,5-1.8,9.1-2.1,11.6c-0.3,2.6-0.5,4.9-0.6,6.6"/>
<path d="M64.7,166.8c0.1-2.2,0.4-4.4,0.6-6.6c0.5-3.8,1.2-7.7,2.1-11.6c0.9-3.9,1.7-7.2,3.4-11.7c1.6-4.2,3.8-8.6,6.4-12.7
	c2.7-4.3,5.1-7.1,7.6-10.2c1.5-1.8,4.3-5.2,8.4-9.1c4.3-4.1,9-7.9,13.9-11.2l0.5-1.2c-5,3.3-10.6,7.7-14.9,11.9
	c-4.1,4-6.9,7.4-8.4,9.2c-2.5,3.1-4.9,6-7.6,10.3c-2.6,4.1-4.8,8.5-6.5,12.8c-1.7,4.5-2.5,7.8-3.5,11.7c-0.9,3.9-1.6,7.8-2.1,11.6
	c-0.3,2.2-0.5,5.2-0.6,7.5L64.7,166.8z"/>
<path class="st3" d="M64.7,166.8c0.1-2.2,0.4-4.4,0.6-6.6c0.5-3.8,1.2-7.7,2.1-11.6c0.9-3.9,1.7-7.2,3.4-11.7
	c1.6-4.2,3.8-8.6,6.4-12.7c2.7-4.3,5.1-7.1,7.6-10.2c1.5-1.8,4.3-5.2,8.4-9.1c4.3-4.1,9-7.9,13.9-11.2l0.5-1.2
	c-5,3.3-10.6,7.7-14.9,11.9c-4.1,4-6.9,7.4-8.4,9.2c-2.5,3.1-4.9,6-7.6,10.3c-2.6,4.1-4.8,8.5-6.5,12.8c-1.7,4.5-2.5,7.8-3.5,11.7
	c-0.9,3.9-1.6,7.8-2.1,11.6c-0.3,2.2-0.5,5.2-0.6,7.5L64.7,166.8z"/>
<path class="st2" d="M107.2,93.5c-0.5,7.3-1.8,13.3-2.9,17.7c-1.4,5.4-2.9,9.5-3.8,11.8c-1.4,3.7-2.7,7.2-5.1,11.7
	c-3.3,6.1-6.6,10.3-7.9,11.9c-3,3.7-5.6,6.1-8.5,8.8c-3.8,3.5-7,6.1-9,7.6c-2.1,1.6-4,2.9-5.4,3.8"/>
<path class="st3" d="M107.2,93.5c-0.5,7.3-1.8,13.3-2.9,17.7c-1.4,5.4-2.9,9.5-3.8,11.8c-1.4,3.7-2.7,7.2-5.1,11.7
	c-3.3,6.1-6.6,10.3-7.9,11.9c-3,3.7-5.6,6.1-8.5,8.8c-3.8,3.5-7,6.1-9,7.6c-2.1,1.6-4,2.9-5.4,3.8"/>
<path d="M63.9,167.6c1.8-1.2,4.5-3,6.2-4.4c3.1-2.3,6.1-4.9,9.1-7.6c2.9-2.7,5.5-5.1,8.5-8.8c2.9-3.5,5.6-7.7,7.9-11.9
	c2.4-4.5,3.7-8,5.2-11.7c0.8-2.2,2.4-6.4,3.8-11.9c1.5-5.8,2.5-12.7,3-18.7l-0.8,0.9c-0.4,6-1.4,11.9-2.9,17.7
	c-1.4,5.5-3,9.6-3.8,11.8c-1.4,3.7-2.7,7.2-5.1,11.6c-2.3,4.2-5,8.3-7.9,11.8c-3,3.7-5.5,6-8.4,8.7c-2.9,2.7-5.9,5.2-9,7.6
	c-1.8,1.3-3.6,2.6-5.4,3.8L63.9,167.6z"/>
<path class="st3" d="M63.9,167.6c1.8-1.2,4.5-3,6.2-4.4c3.1-2.3,6.1-4.9,9.1-7.6c2.9-2.7,5.5-5.1,8.5-8.8c2.9-3.5,5.6-7.7,7.9-11.9
	c2.4-4.5,3.7-8,5.2-11.7c0.8-2.2,2.4-6.4,3.8-11.9c1.5-5.8,2.5-12.7,3-18.7l-0.8,0.9c-0.4,6-1.4,11.9-2.9,17.7
	c-1.4,5.5-3,9.6-3.8,11.8c-1.4,3.7-2.7,7.2-5.1,11.6c-2.3,4.2-5,8.3-7.9,11.8c-3,3.7-5.5,6-8.4,8.7c-2.9,2.7-5.9,5.2-9,7.6
	c-1.8,1.3-3.6,2.6-5.4,3.8L63.9,167.6z"/>
<path class="st2" d="M105.4,96.3c-5.4,3.8-9.6,7.6-12.6,10.5c-3.6,3.6-6.1,6.7-7.6,8.5c-2.3,2.8-4.5,5.5-6.9,9.5
	c-3.4,5.4-5.2,9.9-6,11.7c-1.6,4.1-2.4,7.2-3.3,10.7c-1.2,4.6-1.8,8.3-2.1,10.6c-0.4,2.4-0.6,4.4-0.7,6"/>
<path class="st0" d="M105.4,96.3c-5.4,3.8-9.6,7.6-12.6,10.5c-3.6,3.6-6.1,6.7-7.6,8.5c-2.3,2.8-4.5,5.5-6.9,9.5
	c-3.4,5.4-5.2,9.9-6,11.7c-1.6,4.1-2.4,7.2-3.3,10.7c-1.2,4.6-1.8,8.3-2.1,10.6c-0.4,2.4-0.6,4.4-0.7,6"/>
<path d="M66.4,163.8c0.2-2,0.4-4,0.7-6c0.5-3.5,1.2-7,2.1-10.6c0.9-3.5,1.7-6.6,3.3-10.7c1.5-3.9,3.6-7.9,5.9-11.7
	c2.5-3.9,4.6-6.6,6.9-9.4c1.4-1.7,3.9-4.8,7.6-8.5c3.9-3.9,8.1-7.4,12.6-10.5l0.2-0.6c-4.5,3.1-9.2,7-13,10.9
	c-3.7,3.7-6.2,6.8-7.6,8.5c-2.3,2.8-4.5,5.5-7,9.5c-2.4,3.8-4.4,7.8-6,11.7c-1.6,4.1-2.4,7.2-3.3,10.7c-0.9,3.5-1.6,7.1-2.1,10.6
	c-0.3,2-0.6,4.5-0.7,6.5L66.4,163.8z"/>
<path class="st0" d="M66.4,163.8c0.2-2,0.4-4,0.7-6c0.5-3.5,1.2-7,2.1-10.6c0.9-3.5,1.7-6.6,3.3-10.7c1.5-3.9,3.6-7.9,5.9-11.7
	c2.5-3.9,4.6-6.6,6.9-9.4c1.4-1.7,3.9-4.8,7.6-8.5c3.9-3.9,8.1-7.4,12.6-10.5l0.2-0.6c-4.5,3.1-9.2,7-13,10.9
	c-3.7,3.7-6.2,6.8-7.6,8.5c-2.3,2.8-4.5,5.5-7,9.5c-2.4,3.8-4.4,7.8-6,11.7c-1.6,4.1-2.4,7.2-3.3,10.7c-0.9,3.5-1.6,7.1-2.1,10.6
	c-0.3,2-0.6,4.5-0.7,6.5L66.4,163.8z"/>
<path class="st2" d="M105.5,96.4c-0.6,6.6-1.8,12.1-2.9,16.2c-1.3,4.9-2.8,8.7-3.6,10.8c-1.3,3.4-2.6,6.6-4.8,10.7
	c-3,5.6-6,9.5-7.2,11c-2.7,3.4-5,5.6-7.7,8.1c-3.4,3.3-6.3,5.7-8.1,7.1c-1.9,1.5-3.6,2.7-4.9,3.6"/>
<path class="st0" d="M105.5,96.4c-0.6,6.6-1.8,12.1-2.9,16.2c-1.3,4.9-2.8,8.7-3.6,10.8c-1.3,3.4-2.6,6.6-4.8,10.7
	c-3,5.6-6,9.5-7.2,11c-2.7,3.4-5,5.6-7.7,8.1c-3.4,3.3-6.3,5.7-8.1,7.1c-1.9,1.5-3.6,2.7-4.9,3.6"/>
<path d="M66,164.3c1.6-1.1,3.7-2.6,5.3-3.9c2.8-2.2,5.5-4.6,8.2-7.1c2.6-2.5,4.9-4.7,7.7-8.2c2.6-3.3,5.1-7.1,7.2-11
	c2.2-4.1,3.5-7.3,4.8-10.7c0.8-2,2.3-5.8,3.6-10.8c1.4-5.3,2.5-11.3,3-16.7l-0.4,0.5c-0.5,5.4-1.5,10.8-2.9,16.1
	c-1.4,5-2.8,8.8-3.6,10.8c-1.3,3.4-2.6,6.6-4.8,10.7c-2.1,3.9-4.6,7.7-7.2,10.9c-2.7,3.4-5,5.6-7.6,8.1c-2.6,2.5-5.4,4.9-8.1,7.1
	c-1.6,1.2-3.2,2.5-4.9,3.6L66,164.3z"/>
<path class="st0" d="M66,164.3c1.6-1.1,3.7-2.6,5.3-3.9c2.8-2.2,5.5-4.6,8.2-7.1c2.6-2.5,4.9-4.7,7.7-8.2c2.6-3.3,5.1-7.1,7.2-11
	c2.2-4.1,3.5-7.3,4.8-10.7c0.8-2,2.3-5.8,3.6-10.8c1.4-5.3,2.5-11.3,3-16.7l-0.4,0.5c-0.5,5.4-1.5,10.8-2.9,16.1
	c-1.4,5-2.8,8.8-3.6,10.8c-1.3,3.4-2.6,6.6-4.8,10.7c-2.1,3.9-4.6,7.7-7.2,10.9c-2.7,3.4-5,5.6-7.6,8.1c-2.6,2.5-5.4,4.9-8.1,7.1
	c-1.6,1.2-3.2,2.5-4.9,3.6L66,164.3z"/>
<path class="st2" d="M63.2,168.6c-6.1,4-10.7,8.1-14,11.3c-4,3.9-6.8,7.2-8.4,9.1c-2.5,3-4.9,5.9-7.6,10.2
	c-3.7,5.8-5.7,10.8-6.4,12.7c-1.7,4.4-2.5,7.8-3.4,11.7c-1.2,5-1.8,9.1-2.1,11.6c-0.3,2.6-0.5,4.9-0.6,6.6"/>
<path class="st3" d="M63.2,168.6c-6.1,4-10.7,8.1-14,11.3c-4,3.9-6.8,7.2-8.4,9.1c-2.5,3-4.9,5.9-7.6,10.2
	c-3.7,5.8-5.7,10.8-6.4,12.7c-1.7,4.4-2.5,7.8-3.4,11.7c-1.2,5-1.8,9.1-2.1,11.6c-0.3,2.6-0.5,4.9-0.6,6.6"/>
<path d="M20.8,242.1c0.1-2.2,0.4-4.4,0.6-6.6c0.5-3.8,1.2-7.7,2.1-11.6c0.9-3.9,1.7-7.2,3.4-11.7c1.6-4.2,3.8-8.6,6.4-12.7
	c2.7-4.3,5.1-7.1,7.6-10.2c1.5-1.8,4.3-5.2,8.4-9.1c4.3-4.1,9-7.9,13.9-11.2l0.5-1.2c-5,3.3-10.6,7.7-14.9,11.9
	c-4.1,4-6.9,7.4-8.4,9.2c-2.5,3.1-4.9,6-7.6,10.3c-2.6,4.1-4.8,8.5-6.5,12.8c-1.7,4.5-2.5,7.8-3.5,11.7c-0.9,3.9-1.6,7.8-2.1,11.6
	c-0.3,2.2-0.5,5.2-0.6,7.5L20.8,242.1z"/>
<path class="st3" d="M20.8,242.1c0.1-2.2,0.4-4.4,0.6-6.6c0.5-3.8,1.2-7.7,2.1-11.6c0.9-3.9,1.7-7.2,3.4-11.7
	c1.6-4.2,3.8-8.6,6.4-12.7c2.7-4.3,5.1-7.1,7.6-10.2c1.5-1.8,4.3-5.2,8.4-9.1c4.3-4.1,9-7.9,13.9-11.2l0.5-1.2
	c-5,3.3-10.6,7.7-14.9,11.9c-4.1,4-6.9,7.4-8.4,9.2c-2.5,3.1-4.9,6-7.6,10.3c-2.6,4.1-4.8,8.5-6.5,12.8c-1.7,4.5-2.5,7.8-3.5,11.7
	c-0.9,3.9-1.6,7.8-2.1,11.6c-0.3,2.2-0.5,5.2-0.6,7.5L20.8,242.1z"/>
<path class="st2" d="M63.3,168.7c-0.5,7.3-1.8,13.3-2.9,17.7c-1.4,5.4-2.9,9.5-3.8,11.8c-1.4,3.7-2.7,7.2-5.1,11.7
	c-3.3,6.1-6.6,10.3-7.9,11.9c-3,3.7-5.6,6.1-8.5,8.8c-3.8,3.5-7,6.1-9,7.6c-2.1,1.6-4,2.9-5.4,3.8"/>
<path class="st3" d="M63.3,168.7c-0.5,7.3-1.8,13.3-2.9,17.7c-1.4,5.4-2.9,9.5-3.8,11.8c-1.4,3.7-2.7,7.2-5.1,11.7
	c-3.3,6.1-6.6,10.3-7.9,11.9c-3,3.7-5.6,6.1-8.5,8.8c-3.8,3.5-7,6.1-9,7.6c-2.1,1.6-4,2.9-5.4,3.8"/>
<path d="M20.1,242.8c1.8-1.2,4.5-3,6.2-4.4c3.1-2.3,6.1-4.9,9.1-7.6c2.9-2.7,5.5-5.1,8.5-8.8c2.9-3.5,5.6-7.7,7.9-11.9
	c2.4-4.5,3.7-8,5.2-11.7c0.8-2.2,2.4-6.4,3.8-11.9c1.5-5.8,2.5-12.7,3-18.7l-0.8,0.9c-0.4,6-1.4,11.9-2.9,17.7
	c-1.4,5.5-3,9.6-3.8,11.8c-1.4,3.7-2.7,7.2-5.1,11.6c-2.3,4.2-5,8.3-7.9,11.8c-3,3.7-5.5,6-8.4,8.7c-2.9,2.7-5.9,5.2-9,7.6
	c-1.8,1.3-3.6,2.6-5.4,3.8L20.1,242.8z"/>
<path class="st3" d="M20.1,242.8c1.8-1.2,4.5-3,6.2-4.4c3.1-2.3,6.1-4.9,9.1-7.6c2.9-2.7,5.5-5.1,8.5-8.8c2.9-3.5,5.6-7.7,7.9-11.9
	c2.4-4.5,3.7-8,5.2-11.7c0.8-2.2,2.4-6.4,3.8-11.9c1.5-5.8,2.5-12.7,3-18.7l-0.8,0.9c-0.4,6-1.4,11.9-2.9,17.7
	c-1.4,5.5-3,9.6-3.8,11.8c-1.4,3.7-2.7,7.2-5.1,11.6c-2.3,4.2-5,8.3-7.9,11.8c-3,3.7-5.5,6-8.4,8.7c-2.9,2.7-5.9,5.2-9,7.6
	c-1.8,1.3-3.6,2.6-5.4,3.8L20.1,242.8z"/>
<path class="st2" d="M61.6,171.6c-5.4,3.8-9.6,7.6-12.6,10.5c-3.6,3.6-6.1,6.7-7.6,8.5c-2.3,2.8-4.5,5.5-6.9,9.5
	c-3.4,5.4-5.2,9.9-6,11.7c-1.6,4.1-2.4,7.2-3.3,10.7c-1.2,4.6-1.8,8.3-2.1,10.6c-0.4,2.4-0.6,4.4-0.7,6"/>
<path class="st0" d="M61.6,171.6c-5.4,3.8-9.6,7.6-12.6,10.5c-3.6,3.6-6.1,6.7-7.6,8.5c-2.3,2.8-4.5,5.5-6.9,9.5
	c-3.4,5.4-5.2,9.9-6,11.7c-1.6,4.1-2.4,7.2-3.3,10.7c-1.2,4.6-1.8,8.3-2.1,10.6c-0.4,2.4-0.6,4.4-0.7,6"/>
<path d="M22.6,239.1c0.2-2,0.4-4,0.7-6c0.5-3.5,1.2-7,2.1-10.6c0.9-3.5,1.7-6.6,3.3-10.7c1.5-3.9,3.6-7.9,5.9-11.7
	c2.5-3.9,4.6-6.6,6.9-9.4c1.4-1.7,3.9-4.8,7.6-8.5c3.9-3.9,8.1-7.4,12.6-10.5l0.2-0.6c-4.5,3.1-9.2,7-13,10.9
	c-3.7,3.7-6.2,6.8-7.6,8.5c-2.3,2.8-4.5,5.5-7,9.5c-2.4,3.8-4.4,7.8-6,11.7c-1.6,4.1-2.4,7.2-3.3,10.7c-0.9,3.5-1.6,7.1-2.1,10.6
	c-0.3,2-0.6,4.5-0.7,6.5L22.6,239.1z"/>
<path class="st0" d="M22.6,239.1c0.2-2,0.4-4,0.7-6c0.5-3.5,1.2-7,2.1-10.6c0.9-3.5,1.7-6.6,3.3-10.7c1.5-3.9,3.6-7.9,5.9-11.7
	c2.5-3.9,4.6-6.6,6.9-9.4c1.4-1.7,3.9-4.8,7.6-8.5c3.9-3.9,8.1-7.4,12.6-10.5l0.2-0.6c-4.5,3.1-9.2,7-13,10.9
	c-3.7,3.7-6.2,6.8-7.6,8.5c-2.3,2.8-4.5,5.5-7,9.5c-2.4,3.8-4.4,7.8-6,11.7c-1.6,4.1-2.4,7.2-3.3,10.7c-0.9,3.5-1.6,7.1-2.1,10.6
	c-0.3,2-0.6,4.5-0.7,6.5L22.6,239.1z"/>
<path class="st2" d="M61.7,171.7c-0.6,6.6-1.8,12.1-2.9,16.2c-1.3,4.9-2.8,8.7-3.6,10.8c-1.3,3.4-2.6,6.6-4.8,10.7
	c-3,5.6-6,9.5-7.2,11c-2.7,3.4-5,5.6-7.7,8.1c-3.4,3.3-6.3,5.7-8.1,7.1c-1.9,1.5-3.6,2.7-4.9,3.6"/>
<path class="st0" d="M61.7,171.7c-0.6,6.6-1.8,12.1-2.9,16.2c-1.3,4.9-2.8,8.7-3.6,10.8c-1.3,3.4-2.6,6.6-4.8,10.7
	c-3,5.6-6,9.5-7.2,11c-2.7,3.4-5,5.6-7.7,8.1c-3.4,3.3-6.3,5.7-8.1,7.1c-1.9,1.5-3.6,2.7-4.9,3.6"/>
<path d="M22.2,239.5c1.6-1.1,3.7-2.6,5.3-3.9c2.8-2.2,5.5-4.6,8.2-7.1c2.6-2.5,4.9-4.7,7.7-8.2c2.6-3.3,5.1-7.1,7.2-11
	c2.2-4.1,3.5-7.3,4.8-10.7c0.8-2,2.3-5.8,3.6-10.8c1.4-5.3,2.5-11.3,3-16.7l-0.4,0.5c-0.5,5.4-1.5,10.8-2.9,16.1
	c-1.4,5-2.8,8.8-3.6,10.8c-1.3,3.4-2.6,6.6-4.8,10.7c-2.1,3.9-4.6,7.7-7.2,10.9c-2.7,3.4-5,5.6-7.6,8.1c-2.6,2.5-5.4,4.9-8.1,7.1
	c-1.6,1.2-3.2,2.5-4.9,3.6L22.2,239.5z"/>
<path class="st0" d="M22.2,239.5c1.6-1.1,3.7-2.6,5.3-3.9c2.8-2.2,5.5-4.6,8.2-7.1c2.6-2.5,4.9-4.7,7.7-8.2c2.6-3.3,5.1-7.1,7.2-11
	c2.2-4.1,3.5-7.3,4.8-10.7c0.8-2,2.3-5.8,3.6-10.8c1.4-5.3,2.5-11.3,3-16.7l-0.4,0.5c-0.5,5.4-1.5,10.8-2.9,16.1
	c-1.4,5-2.8,8.8-3.6,10.8c-1.3,3.4-2.6,6.6-4.8,10.7c-2.1,3.9-4.6,7.7-7.2,10.9c-2.7,3.4-5,5.6-7.6,8.1c-2.6,2.5-5.4,4.9-8.1,7.1
	c-1.6,1.2-3.2,2.5-4.9,3.6L22.2,239.5z"/>
<path class="st2" d="M197.5,247.7c-6.5-3.2-12.4-5.2-16.8-6.4c-5.3-1.5-9.6-2.2-12.1-2.6c-3.9-0.6-7.6-1.3-12.7-1.4
	c-6.9-0.2-12.2,0.5-14.2,0.9c-4.7,0.7-8,1.8-11.8,2.9c-4.9,1.5-8.8,3-11.1,4c-2.4,1-4.5,2-6,2.8"/>
<path class="st3" d="M197.5,247.7c-6.5-3.2-12.4-5.2-16.8-6.4c-5.3-1.5-9.6-2.2-12.1-2.6c-3.9-0.6-7.6-1.3-12.7-1.4
	c-6.9-0.2-12.2,0.5-14.2,0.9c-4.7,0.7-8,1.8-11.8,2.9c-4.9,1.5-8.8,3-11.1,4c-2.4,1-4.5,2-6,2.8"/>
<path d="M112.7,248.1c2-1,4-1.9,6-2.8c3.5-1.5,7.3-2.8,11.1-4c3.8-1.2,7.1-2.2,11.8-2.9c4.5-0.7,9.4-1,14.2-0.9
	c5,0.2,8.7,0.8,12.6,1.4c2.3,0.4,6.7,1.1,12.1,2.6c5.7,1.6,11.4,3.8,16.7,6.4l1.3-0.2c-5.4-2.6-12-5.3-17.8-6.9
	c-5.5-1.5-9.8-2.3-12.2-2.7c-3.9-0.7-7.6-1.3-12.7-1.4c-4.8-0.2-9.8,0.1-14.3,0.9c-4.7,0.8-8,1.8-11.9,2.9c-3.8,1.2-7.6,2.5-11.1,4
	c-2,0.9-4.8,2.2-6.8,3.2L112.7,248.1z"/>
<path class="st3" d="M112.7,248.1c2-1,4-1.9,6-2.8c3.5-1.5,7.3-2.8,11.1-4c3.8-1.2,7.1-2.2,11.8-2.9c4.5-0.7,9.4-1,14.2-0.9
	c5,0.2,8.7,0.8,12.6,1.4c2.3,0.4,6.7,1.1,12.1,2.6c5.7,1.6,11.4,3.8,16.7,6.4l1.3-0.2c-5.4-2.6-12-5.3-17.8-6.9
	c-5.5-1.5-9.8-2.3-12.2-2.7c-3.9-0.7-7.6-1.3-12.7-1.4c-4.8-0.2-9.8,0.1-14.3,0.9c-4.7,0.8-8,1.8-11.9,2.9c-3.8,1.2-7.6,2.5-11.1,4
	c-2,0.9-4.8,2.2-6.8,3.2L112.7,248.1z"/>
<path class="st2" d="M197.5,247.9c-6.5,3.2-12.4,5.2-16.8,6.4c-5.3,1.5-9.6,2.2-12.1,2.7c-3.9,0.7-7.6,1.3-12.7,1.4
	c-6.9,0.2-12.2-0.5-14.2-0.8c-4.7-0.7-8-1.8-11.8-2.9c-4.9-1.5-8.8-3-11.1-4c-2.4-1-4.5-2-6-2.8"/>
<path class="st3" d="M197.5,247.9c-6.5,3.2-12.4,5.2-16.8,6.4c-5.3,1.5-9.6,2.2-12.1,2.7c-3.9,0.7-7.6,1.3-12.7,1.4
	c-6.9,0.2-12.2-0.5-14.2-0.8c-4.7-0.7-8-1.8-11.8-2.9c-4.9-1.5-8.8-3-11.1-4c-2.4-1-4.5-2-6-2.8"/>
<path d="M111.7,247.8c2,1,4.9,2.3,6.9,3.2c3.6,1.5,7.3,2.9,11.1,4c3.9,1.2,7.2,2.2,11.9,2.9c4.5,0.7,9.5,1,14.3,0.8
	c5.1-0.2,8.8-0.8,12.7-1.4c2.3-0.4,6.7-1.1,12.2-2.7c5.8-1.6,12.3-4.2,17.7-6.8l-1.1-0.3c-5.4,2.6-11,4.8-16.7,6.4
	c-5.4,1.5-9.8,2.3-12.1,2.6c-3.9,0.7-7.6,1.3-12.6,1.4c-4.8,0.2-9.7-0.1-14.2-0.8c-4.7-0.7-8-1.7-11.8-2.9c-3.8-1.1-7.5-2.5-11.1-4
	c-2-0.9-4.1-1.8-6-2.8L111.7,247.8z"/>
<path class="st3" d="M111.7,247.8c2,1,4.9,2.3,6.9,3.2c3.6,1.5,7.3,2.9,11.1,4c3.9,1.2,7.2,2.2,11.9,2.9c4.5,0.7,9.5,1,14.3,0.8
	c5.1-0.2,8.8-0.8,12.7-1.4c2.3-0.4,6.7-1.1,12.2-2.7c5.8-1.6,12.3-4.2,17.7-6.8l-1.1-0.3c-5.4,2.6-11,4.8-16.7,6.4
	c-5.4,1.5-9.8,2.3-12.1,2.6c-3.9,0.7-7.6,1.3-12.6,1.4c-4.8,0.2-9.7-0.1-14.2-0.8c-4.7-0.7-8-1.7-11.8-2.9c-3.8-1.1-7.5-2.5-11.1-4
	c-2-0.9-4.1-1.8-6-2.8L111.7,247.8z"/>
<path class="st2" d="M194.1,247.8c-6-2.8-11.4-4.5-15.4-5.6c-4.9-1.3-8.9-1.9-11.2-2.3c-3.6-0.6-7-1.1-11.7-1.2
	c-6.4-0.2-11.2,0.5-13.1,0.7c-4.3,0.7-7.4,1.5-10.9,2.5c-4.5,1.3-8.1,2.6-10.2,3.5c-2.2,0.9-4.1,1.7-5.6,2.4"/>
<path class="st0" d="M194.1,247.8c-6-2.8-11.4-4.5-15.4-5.6c-4.9-1.3-8.9-1.9-11.2-2.3c-3.6-0.6-7-1.1-11.7-1.2
	c-6.4-0.2-11.2,0.5-13.1,0.7c-4.3,0.7-7.4,1.5-10.9,2.5c-4.5,1.3-8.1,2.6-10.2,3.5c-2.2,0.9-4.1,1.7-5.6,2.4"/>
<path d="M116.2,248.1c1.8-0.9,3.7-1.7,5.5-2.4c3.3-1.3,6.7-2.5,10.2-3.5c3.5-1,6.6-1.9,10.9-2.5c4.1-0.6,8.6-0.9,13.1-0.7
	c4.6,0.1,8,0.7,11.6,1.2c2.2,0.3,6.2,1,11.2,2.3c5.3,1.4,10.5,3.3,15.4,5.6l0.6-0.1c-5-2.3-10.6-4.4-15.9-5.8c-5-1.3-9-2-11.2-2.3
	c-3.6-0.6-7-1.1-11.7-1.2c-4.4-0.1-9,0.1-13.1,0.8c-4.3,0.7-7.4,1.5-10.9,2.5c-3.5,1-6.9,2.2-10.2,3.5c-1.9,0.7-4.2,1.8-6,2.6
	L116.2,248.1z"/>
<path class="st0" d="M116.2,248.1c1.8-0.9,3.7-1.7,5.5-2.4c3.3-1.3,6.7-2.5,10.2-3.5c3.5-1,6.6-1.9,10.9-2.5
	c4.1-0.6,8.6-0.9,13.1-0.7c4.6,0.1,8,0.7,11.6,1.2c2.2,0.3,6.2,1,11.2,2.3c5.3,1.4,10.5,3.3,15.4,5.6l0.6-0.1
	c-5-2.3-10.6-4.4-15.9-5.8c-5-1.3-9-2-11.2-2.3c-3.6-0.6-7-1.1-11.7-1.2c-4.4-0.1-9,0.1-13.1,0.8c-4.3,0.7-7.4,1.5-10.9,2.5
	c-3.5,1-6.9,2.2-10.2,3.5c-1.9,0.7-4.2,1.8-6,2.6L116.2,248.1z"/>
<path class="st2" d="M194.1,247.9c-6,2.8-11.4,4.5-15.4,5.6c-4.9,1.3-8.9,1.9-11.2,2.3c-3.6,0.6-7,1.1-11.7,1.3
	c-6.4,0.2-11.2-0.4-13.1-0.7c-4.3-0.6-7.4-1.5-10.9-2.5c-4.5-1.3-8.1-2.6-10.2-3.5c-2.2-0.9-4.1-1.7-5.6-2.4"/>
<path class="st0" d="M194.1,247.9c-6,2.8-11.4,4.5-15.4,5.6c-4.9,1.3-8.9,1.9-11.2,2.3c-3.6,0.6-7,1.1-11.7,1.3
	c-6.4,0.2-11.2-0.4-13.1-0.7c-4.3-0.6-7.4-1.5-10.9-2.5c-4.5-1.3-8.1-2.6-10.2-3.5c-2.2-0.9-4.1-1.7-5.6-2.4"/>
<path d="M115.6,247.9c1.8,0.8,4.1,1.9,6,2.6c3.3,1.3,6.7,2.5,10.2,3.5c3.5,1,6.6,1.9,10.9,2.5c4.1,0.6,8.7,0.9,13.1,0.7
	c4.7-0.1,8.1-0.7,11.7-1.3c2.2-0.3,6.2-1,11.2-2.3c5.3-1.4,11-3.5,16-5.8l-0.7-0.1c-4.9,2.3-10.1,4.2-15.4,5.6c-5,1.3-9,2-11.1,2.3
	c-3.6,0.6-7,1.1-11.6,1.3c-4.4,0.1-9-0.1-13.1-0.7c-4.3-0.6-7.4-1.5-10.9-2.5c-3.5-1-6.9-2.2-10.2-3.5c-1.9-0.7-3.7-1.6-5.5-2.4
	L115.6,247.9z"/>
<path class="st0" d="M115.6,247.9c1.8,0.8,4.1,1.9,6,2.6c3.3,1.3,6.7,2.5,10.2,3.5c3.5,1,6.6,1.9,10.9,2.5c4.1,0.6,8.7,0.9,13.1,0.7
	c4.7-0.1,8.1-0.7,11.7-1.3c2.2-0.3,6.2-1,11.2-2.3c5.3-1.4,11-3.5,16-5.8l-0.7-0.1c-4.9,2.3-10.1,4.2-15.4,5.6c-5,1.3-9,2-11.1,2.3
	c-3.6,0.6-7,1.1-11.6,1.3c-4.4,0.1-9-0.1-13.1-0.7c-4.3-0.6-7.4-1.5-10.9-2.5c-3.5-1-6.9-2.2-10.2-3.5c-1.9-0.7-3.7-1.6-5.5-2.4
	L115.6,247.9z"/>
<path class="st2" d="M105.7,247.7c-6.5-3.2-12.4-5.2-16.8-6.4c-5.3-1.5-9.6-2.2-12.1-2.6c-3.9-0.6-7.6-1.3-12.7-1.4
	c-6.9-0.2-12.2,0.5-14.2,0.9c-4.7,0.7-8,1.8-11.8,2.9c-4.9,1.5-8.8,3-11.1,4c-2.4,1-4.5,2-6,2.8"/>
<path class="st3" d="M105.7,247.7c-6.5-3.2-12.4-5.2-16.8-6.4c-5.3-1.5-9.6-2.2-12.1-2.6c-3.9-0.6-7.6-1.3-12.7-1.4
	c-6.9-0.2-12.2,0.5-14.2,0.9c-4.7,0.7-8,1.8-11.8,2.9c-4.9,1.5-8.8,3-11.1,4c-2.4,1-4.5,2-6,2.8"/>
<path d="M20.9,248.1c2-1,4-1.9,6-2.8c3.5-1.5,7.3-2.8,11.1-4c3.8-1.2,7.1-2.2,11.8-2.9c4.5-0.7,9.4-1,14.2-0.9
	c5,0.2,8.7,0.8,12.6,1.4c2.3,0.4,6.7,1.1,12.1,2.6c5.7,1.6,11.4,3.8,16.7,6.4l1.3-0.2c-5.4-2.6-12-5.3-17.8-6.9
	c-5.5-1.5-9.8-2.3-12.2-2.7c-3.9-0.7-7.6-1.3-12.7-1.4c-4.8-0.2-9.8,0.1-14.3,0.9c-4.7,0.8-8,1.8-11.9,2.9c-3.8,1.2-7.6,2.5-11.1,4
	c-2,0.9-4.8,2.2-6.8,3.2L20.9,248.1z"/>
<path class="st3" d="M20.9,248.1c2-1,4-1.9,6-2.8c3.5-1.5,7.3-2.8,11.1-4c3.8-1.2,7.1-2.2,11.8-2.9c4.5-0.7,9.4-1,14.2-0.9
	c5,0.2,8.7,0.8,12.6,1.4c2.3,0.4,6.7,1.1,12.1,2.6c5.7,1.6,11.4,3.8,16.7,6.4l1.3-0.2c-5.4-2.6-12-5.3-17.8-6.9
	c-5.5-1.5-9.8-2.3-12.2-2.7c-3.9-0.7-7.6-1.3-12.7-1.4c-4.8-0.2-9.8,0.1-14.3,0.9c-4.7,0.8-8,1.8-11.9,2.9c-3.8,1.2-7.6,2.5-11.1,4
	c-2,0.9-4.8,2.2-6.8,3.2L20.9,248.1z"/>
<path class="st2" d="M105.6,247.9c-6.5,3.2-12.4,5.2-16.8,6.4c-5.3,1.5-9.6,2.2-12.1,2.7c-3.9,0.7-7.6,1.3-12.7,1.4
	c-6.9,0.2-12.2-0.5-14.2-0.8c-4.7-0.7-8-1.8-11.8-2.9c-4.9-1.5-8.8-3-11.1-4c-2.4-1-4.5-2-6-2.8"/>
<path class="st3" d="M105.6,247.9c-6.5,3.2-12.4,5.2-16.8,6.4c-5.3,1.5-9.6,2.2-12.1,2.7c-3.9,0.7-7.6,1.3-12.7,1.4
	c-6.9,0.2-12.2-0.5-14.2-0.8c-4.7-0.7-8-1.8-11.8-2.9c-4.9-1.5-8.8-3-11.1-4c-2.4-1-4.5-2-6-2.8"/>
<path d="M19.8,247.8c2,1,4.9,2.3,6.9,3.2c3.6,1.5,7.3,2.9,11.1,4c3.9,1.2,7.2,2.2,11.9,2.9c4.5,0.7,9.5,1,14.3,0.8
	c5.1-0.2,8.8-0.8,12.7-1.4c2.3-0.4,6.7-1.1,12.2-2.7c5.8-1.6,12.3-4.2,17.7-6.8l-1.1-0.3c-5.4,2.6-11,4.8-16.7,6.4
	c-5.4,1.5-9.8,2.3-12.1,2.6c-3.9,0.7-7.6,1.3-12.6,1.4c-4.8,0.2-9.7-0.1-14.2-0.8c-4.7-0.7-8-1.7-11.8-2.9c-3.8-1.1-7.5-2.5-11.1-4
	c-2-0.9-4.1-1.8-6-2.8L19.8,247.8z"/>
<path class="st3" d="M19.8,247.8c2,1,4.9,2.3,6.9,3.2c3.6,1.5,7.3,2.9,11.1,4c3.9,1.2,7.2,2.2,11.9,2.9c4.5,0.7,9.5,1,14.3,0.8
	c5.1-0.2,8.8-0.8,12.7-1.4c2.3-0.4,6.7-1.1,12.2-2.7c5.8-1.6,12.3-4.2,17.7-6.8l-1.1-0.3c-5.4,2.6-11,4.8-16.7,6.4
	c-5.4,1.5-9.8,2.3-12.1,2.6c-3.9,0.7-7.6,1.3-12.6,1.4c-4.8,0.2-9.7-0.1-14.2-0.8c-4.7-0.7-8-1.7-11.8-2.9c-3.8-1.1-7.5-2.5-11.1-4
	c-2-0.9-4.1-1.8-6-2.8L19.8,247.8z"/>
<path class="st2" d="M102.3,247.8c-6-2.8-11.4-4.5-15.4-5.6c-4.9-1.3-8.9-1.9-11.2-2.3c-3.6-0.6-7-1.1-11.7-1.2
	c-6.4-0.2-11.2,0.5-13.1,0.7c-4.3,0.7-7.4,1.5-10.9,2.5c-4.5,1.3-8.1,2.6-10.2,3.5c-2.2,0.9-4.1,1.7-5.6,2.4"/>
<path class="st0" d="M102.3,247.8c-6-2.8-11.4-4.5-15.4-5.6c-4.9-1.3-8.9-1.9-11.2-2.3c-3.6-0.6-7-1.1-11.7-1.2
	c-6.4-0.2-11.2,0.5-13.1,0.7c-4.3,0.7-7.4,1.5-10.9,2.5c-4.5,1.3-8.1,2.6-10.2,3.5c-2.2,0.9-4.1,1.7-5.6,2.4"/>
<path d="M24.3,248c1.8-0.9,3.7-1.7,5.5-2.4c3.3-1.3,6.7-2.5,10.2-3.5c3.5-1,6.6-1.9,10.9-2.5c4.1-0.6,8.6-0.9,13.1-0.7
	c4.6,0.1,8,0.7,11.6,1.2c2.2,0.3,6.2,1,11.2,2.3c5.3,1.4,10.5,3.3,15.4,5.6l0.6-0.1c-5-2.3-10.6-4.4-15.9-5.8c-5-1.3-9-2-11.2-2.3
	c-3.6-0.6-7-1.1-11.7-1.2c-4.4-0.1-9,0.1-13.1,0.8c-4.3,0.7-7.4,1.5-10.9,2.5c-3.5,1-6.9,2.2-10.2,3.5c-1.9,0.7-4.2,1.8-6,2.6
	L24.3,248z"/>
<path class="st0" d="M24.3,248c1.8-0.9,3.7-1.7,5.5-2.4c3.3-1.3,6.7-2.5,10.2-3.5c3.5-1,6.6-1.9,10.9-2.5c4.1-0.6,8.6-0.9,13.1-0.7
	c4.6,0.1,8,0.7,11.6,1.2c2.2,0.3,6.2,1,11.2,2.3c5.3,1.4,10.5,3.3,15.4,5.6l0.6-0.1c-5-2.3-10.6-4.4-15.9-5.8c-5-1.3-9-2-11.2-2.3
	c-3.6-0.6-7-1.1-11.7-1.2c-4.4-0.1-9,0.1-13.1,0.8c-4.3,0.7-7.4,1.5-10.9,2.5c-3.5,1-6.9,2.2-10.2,3.5c-1.9,0.7-4.2,1.8-6,2.6
	L24.3,248z"/>
<path class="st2" d="M102.3,247.9c-6,2.8-11.4,4.5-15.4,5.6c-4.9,1.3-8.9,1.9-11.2,2.3c-3.6,0.6-7,1.1-11.7,1.3
	c-6.4,0.2-11.2-0.4-13.1-0.7c-4.3-0.6-7.4-1.5-10.9-2.5c-4.5-1.3-8.1-2.6-10.2-3.5c-2.2-0.9-4.1-1.7-5.6-2.4"/>
<path class="st0" d="M102.3,247.9c-6,2.8-11.4,4.5-15.4,5.6c-4.9,1.3-8.9,1.9-11.2,2.3c-3.6,0.6-7,1.1-11.7,1.3
	c-6.4,0.2-11.2-0.4-13.1-0.7c-4.3-0.6-7.4-1.5-10.9-2.5c-4.5-1.3-8.1-2.6-10.2-3.5c-2.2-0.9-4.1-1.7-5.6-2.4"/>
<path d="M23.7,247.9c1.8,0.8,4.1,1.9,6,2.6c3.3,1.3,6.7,2.5,10.2,3.5c3.5,1,6.6,1.9,10.9,2.5c4.1,0.6,8.7,0.9,13.1,0.7
	c4.7-0.1,8.1-0.7,11.7-1.3c2.2-0.3,6.2-1,11.2-2.3c5.3-1.4,11-3.5,16-5.8l-0.7-0.1c-4.9,2.3-10.1,4.2-15.4,5.6c-5,1.3-9,2-11.1,2.3
	c-3.6,0.6-7,1.1-11.6,1.3c-4.4,0.1-9-0.1-13.1-0.7c-4.3-0.6-7.4-1.5-10.9-2.5c-3.5-1-6.9-2.2-10.2-3.5c-1.9-0.7-3.7-1.6-5.5-2.4
	L23.7,247.9z"/>
<path class="st0" d="M23.7,247.9c1.8,0.8,4.1,1.9,6,2.6c3.3,1.3,6.7,2.5,10.2,3.5c3.5,1,6.6,1.9,10.9,2.5c4.1,0.6,8.7,0.9,13.1,0.7
	c4.7-0.1,8.1-0.7,11.7-1.3c2.2-0.3,6.2-1,11.2-2.3c5.3-1.4,11-3.5,16-5.8l-0.7-0.1c-4.9,2.3-10.1,4.2-15.4,5.6c-5,1.3-9,2-11.1,2.3
	c-3.6,0.6-7,1.1-11.6,1.3c-4.4,0.1-9-0.1-13.1-0.7c-4.3-0.6-7.4-1.5-10.9-2.5c-3.5-1-6.9-2.2-10.2-3.5c-1.9-0.7-3.7-1.6-5.5-2.4
	L23.7,247.9z"/>
<path class="st2" d="M130.8,163.1c0,11.6-9.4,21-21,21c-11.6,0-21-9.4-21-21c0-11.6,9.4-21,21-21
	C121.4,142.2,130.8,151.5,130.8,163.1"/>
<circle class="st4" cx="109.8" cy="163.1" r="21"/>
<path class="st2" d="M127.7,163.3c0,9.8-7.9,17.7-17.7,17.7c-9.8,0-17.7-7.9-17.7-17.7c0-9.8,7.9-17.7,17.7-17.7
	C119.8,145.6,127.7,153.5,127.7,163.3"/>
<circle class="st4" cx="110" cy="163.3" r="17.7"/>
<path class="st2" d="M157.2,211.4c0,11.6-9.4,21-21,21c-11.6,0-21-9.4-21-21c0-11.6,9.4-21,21-21
	C147.8,190.4,157.2,199.8,157.2,211.4"/>
<circle class="st4" cx="136.2" cy="211.4" r="21"/>
<path class="st2" d="M154.2,211.6c0,9.8-7.9,17.7-17.7,17.7s-17.7-7.9-17.7-17.7c0-9.8,7.9-17.7,17.7-17.7S154.2,201.8,154.2,211.6"
	/>
<circle class="st4" cx="136.4" cy="211.6" r="17.7"/>
<path class="st2" d="M104.2,211.4c0,11.6-9.4,21-21,21c-11.6,0-21-9.4-21-21c0-11.6,9.4-21,21-21
	C94.8,190.4,104.2,199.8,104.2,211.4"/>
<circle class="st4" cx="83.2" cy="211.4" r="21"/>
<path class="st2" d="M101.1,211.6c0,9.8-7.9,17.7-17.7,17.7c-9.8,0-17.7-7.9-17.7-17.7c0-9.8,7.9-17.7,17.7-17.7
	C93.2,193.9,101.1,201.8,101.1,211.6"/>
<circle class="st4" cx="83.4" cy="211.6" r="17.7"/>
<rect x="-314.7" y="-244.8" class="st5" width="850.4" height="850.4"/>
</svg>
